<svg xmlns="http://www.w3.org/2000/svg" width="160" height="284" viewBox="0 0 160 284"><rect width="160" height="284" rx="12" fill="#f9dae4"/><rect x="7" y="7" width="146" height="270" rx="16" fill="none" stroke="#b64f78"/><path d="M80 34C55 11 54 43 80 35C105 12 107 42 80 35M80 35Q74 52 65 51M80 35Q86 52 96 51" fill="none" stroke="#b53165" stroke-width="2"/><rect x="38" y="58" width="84" height="4" rx="2" fill="#b53165"/><rect x="16" y="73" width="128" height="148" rx="6" fill="#fff9f2"/><path d="M16 200l41-51 30 32 23-22 34 42v20H16z" fill="#e7dccb"/><circle cx="104" cy="112" r="14" fill="#ecd1cf"/><rect x="26" y="238" width="75" height="4" rx="2" fill="#28442f"/><rect x="26" y="249" width="55" height="3" rx="1" fill="#b64f78"/><path d="M119 251c-16-10-15-22-7-23 5 0 6 3 7 6 5-10 18-6 12 4z" fill="none" stroke="#b53165" stroke-width="2"/></svg>
